<?xml version="1.0" encoding="utf-8"?>
<!-- Generator: Adobe Illustrator 24.2.1, SVG Export Plug-In . SVG Version: 6.00 Build 0)  -->
<svg version="1.1" id="Layer_1" xmlns="http://www.w3.org/2000/svg" xmlns:xlink="http://www.w3.org/1999/xlink" x="0px" y="0px"
	 viewBox="0 0 97.9 97.9" style="enable-background:new 0 0 97.9 97.9;" xml:space="preserve">
<style type="text/css">
	.st0{fill-rule:evenodd;clip-rule:evenodd;fill:#CADDFC;}
	.st1{fill-rule:evenodd;clip-rule:evenodd;fill:#FFFFFF;filter:url(#Adobe_OpacityMaskFilter);}
	.st2{mask:url(#mask0_1_);}
	.st3{fill-rule:evenodd;clip-rule:evenodd;fill:#5A48F3;}
</style>
<path class="st0" d="M71.6,52.5c0,9.7-7.8,17.5-17.5,17.5s-17.5-7.8-17.5-17.5S44.5,35,54.1,35S71.6,42.9,71.6,52.5z"/>
<defs>
	<filter id="Adobe_OpacityMaskFilter" filterUnits="userSpaceOnUse" x="24.6" y="16" width="47" height="66">
		<feColorMatrix  type="matrix" values="1 0 0 0 0  0 1 0 0 0  0 0 1 0 0  0 0 0 1 0"/>
	</filter>
</defs>
<mask maskUnits="userSpaceOnUse" x="24.6" y="16" width="47" height="66" id="mask0_1_">
	<path class="st1" d="M24.6,16h47v66h-47V16z"/>
</mask>
<g class="st2">
	<path class="st3" d="M70.5,82H25.8c-0.6,0-1.1-0.5-1.1-1.1V72c0-0.3,0.1-0.6,0.4-0.8l8.2-7.3c13.9-12.3,20.1-19,20.3-25.8
		c0-5.2-3.3-8-9.3-8c-4.1,0-8.5,1.7-12.8,5c-0.3,0.2-0.6,0.3-1,0.2c-0.3-0.1-0.6-0.3-0.7-0.7L25.5,24c-0.2-0.5,0-1,0.4-1.3
		c5.7-4.3,13.4-6.7,21.4-6.7c14.1,0,23.3,8.2,23.3,20.8c0,11.1-8.3,19.9-17.2,27.8l-3.7,3.1h20.9c0.6,0,1.1,0.5,1.1,1.1
		c0,0.6-0.5,1.1-1.1,1.1H46.7c-0.6,0-1.1-0.5-1.1-1.1v-0.2c0-0.3,0.1-0.7,0.4-0.9l5.8-4.8c9.8-8.7,16.4-16.5,16.4-26.1
		c0-11.4-8-18.6-21-18.6c-7.1,0-14.1,2.1-19.3,5.7l3.3,8.3c4.4-3,8.7-4.6,13-4.6c7.2,0,11.5,3.8,11.5,10.3
		c-0.2,7.7-6.7,14.7-21,27.5l-7.8,7v7.2h43.6c0.6,0,1.1,0.5,1.1,1.1C71.6,81.5,71.1,82,70.5,82z"/>
</g>
</svg>
