<?xml version="1.0" encoding="utf-8"?>
<!-- Generator: Adobe Illustrator 24.2.1, SVG Export Plug-In . SVG Version: 6.00 Build 0)  -->
<svg version="1.1" id="Layer_1" xmlns="http://www.w3.org/2000/svg" xmlns:xlink="http://www.w3.org/1999/xlink" x="0px" y="0px"
	 viewBox="0 0 278.6 401.2" style="enable-background:new 0 0 278.6 401.2;" xml:space="preserve">
<style type="text/css">
	.st0{opacity:0.5;fill:none;stroke:#FFFFFF;stroke-width:13;enable-background:new    ;}
	.st1{opacity:0.3;fill:none;stroke:#FFFFFF;stroke-width:16;enable-background:new    ;}
	.st2{opacity:0.1;fill:none;stroke:#FFFFFF;stroke-width:16;enable-background:new    ;}
</style>
<g>
	<path class="st0" d="M368.4,117.8c0,42.9-34.3,77.5-76.5,77.5s-76.5-34.6-76.5-77.5s34.3-77.5,76.5-77.5S368.4,74.9,368.4,117.8z"
		/>
	<path class="st1" d="M350.9,406.8c0,42.1-33.7,76-75,76s-75-33.9-75-76s33.7-76,75-76S350.9,364.7,350.9,406.8z"/>
	<path class="st2" d="M110.9,238.8c0,42.1-33.7,76-75,76s-75-33.9-75-76s33.7-76,75-76S110.9,196.7,110.9,238.8z"/>
</g>
</svg>
