<?xml version="1.0" encoding="utf-8"?>
<!-- Generator: Adobe Illustrator 24.2.1, SVG Export Plug-In . SVG Version: 6.00 Build 0)  -->
<svg version="1.1" id="Layer_1" xmlns="http://www.w3.org/2000/svg" xmlns:xlink="http://www.w3.org/1999/xlink" x="0px" y="0px"
	 viewBox="0 0 167 183" style="enable-background:new 0 0 167 183;" xml:space="preserve">
<style type="text/css">
	.st0{opacity:0.2;fill:#0E7181;}
	.st1{fill-rule:evenodd;clip-rule:evenodd;fill:#FFFFFF;}
</style>
<g>
	<ellipse class="st0" cx="104.4" cy="95" rx="50" ry="50.5"/>
	<path class="st1" d="M102,78.3c2-3.3,1.4-8.8-2.2-12.1c-3.3-3-9-3.2-11.2-1.3C93.1,69.4,97.5,73.8,102,78.3z M73.4,149.2
		c-0.2-0.2-0.4-0.5-0.5-0.7c-4-4.1-8.1-8.1-12.1-12.2c-0.6-0.6-0.9-0.5-1.4,0.1c-1.6,1.7-3.3,3.3-5,5c-0.8,0.8-0.8,0.9,0,1.7
		c3.9,3.9,7.8,7.8,11.8,11.8c0.1,0.1,0.3,0.3,0.4,0.4c0.4,0.4,0.7,0.4,1,0c1.8-1.8,3.7-3.7,5.5-5.5
		C73.2,149.6,73.3,149.4,73.4,149.2z M31.8,148.9c3.9,0.4,8.1-1.2,11.2-4.3c4.1-4,8.1-8.1,12.2-12.2c0.8-0.8,0.8-0.8,0-1.6
		c-2.4-2.4-4.8-4.8-7.3-7.3c-3.9-3.9-7.9-7.8-11.8-11.8c-0.5-0.5-0.8-0.9-1.5-0.2c-4.2,4.3-8.7,8.5-12.8,12.9
		c-3.9,4.2-4.9,9.3-2.9,14.7C21.1,145.1,25.6,148.2,31.8,148.9z M63.4,48.4c-0.2,0.4-0.3,0.7-0.5,1C55,67.9,47.1,86.5,39.2,105.1
		c-0.4,0.9-0.3,1.4,0.4,2c6.8,6.7,13.6,13.5,20.3,20.3c0.6,0.6,1.1,0.7,1.9,0.4c13.1-5.6,26.2-11.2,39.3-16.8
		c0.4-0.2,0.8-0.4,1.5-0.7c-0.6-0.5-1.1-0.8-1.5-1.2C90.7,98.7,80.3,88.3,69.9,77.9c-0.3-0.3-0.7-0.6-1-1c-1.2-1.3-1.2-3-0.1-4.1
		s2.8-1.1,4.1,0c0.4,0.3,0.7,0.6,1,1C85,84.9,96.1,96,107.1,107.1c0.7,0.7,1.3,0.9,2.3,0.4c2.7-1.2,5.5-2.4,8.3-3.6
		c0.3-0.1,0.6-0.3,0.8-0.5C100.2,85.1,81.8,66.8,63.4,48.4z M12.4,131.6c0.5-1.9,1-3.8,1.7-5.5c1-2.6,2.7-4.7,4.7-6.6
		c4.4-4.3,8.7-8.7,13-13.1c0.7-0.7,1.2-1.5,1.6-2.4C42,83.7,50.6,63.5,59.3,43.2c0.2-0.5,0.4-1,0.7-1.5c1-1.7,2.9-2,4.4-0.8
		c0.4,0.3,0.7,0.7,1.1,1.1c5.9,5.9,11.8,11.8,17.8,17.8c1.1,1.1,0.8,1.1,2.2,0.3c9.7-5.6,21.9,0.5,23.4,11.5c0.5,3.6-0.2,7-2,10.1
		c-0.5,0.8-0.4,1.3,0.3,2c6,6,12,12,18,17.9c0.4,0.4,0.7,0.7,1,1.1c1.1,1.5,0.8,3.3-0.9,4.3c-0.4,0.2-0.7,0.4-1.1,0.5
		c-19.1,8.2-38.2,16.3-57.4,24.5c-0.5,0.2-0.9,0.4-1.5,0.7c0.4,0.4,0.7,0.8,1,1.1c4.2,4.2,8.4,8.4,12.7,12.7c0.4,0.4,0.7,0.7,1,1.1
		c0.8,1.1,0.8,2.2,0,3.3c-0.2,0.3-0.5,0.7-0.8,0.9c-3.2,3.2-6.3,6.4-9.5,9.5c-0.3,0.3-0.7,0.6-1.1,0.9c-1.1,0.7-2.2,0.7-3.2-0.1
		c-0.4-0.3-0.8-0.7-1.1-1c-4.6-4.6-9.2-9.2-13.7-13.7c-1.2-1.2-0.9-1.2-2.1,0c-2.4,2.5-5.1,4.6-8.5,5.9c-12.1,4.5-25.1-3-27.3-15.7
		c0-0.2-0.1-0.3-0.2-0.5v-5.5H12.4z"/>
	<path class="st1" d="M30.7,48.8c3.6,0,7.1,0,10.7,0c1.7,0,2-0.3,2-2c0-6.2,0-12.4,0-18.6c0-1.7-0.3-2-2-2c-7.1,0-14.2,0-21.3,0
		c-1.7,0-2,0.3-2,2c0,6.2,0,12.4,0,18.6c0,1.7,0.3,2,2,2C23.6,48.8,27.1,48.8,30.7,48.8z M44,20.5c0.4,0.2,0.9,0.4,1.3,0.7
		c2.3,1.3,3.7,3.2,3.7,5.9c0,6.9,0.1,13.9,0,20.8c0,3.6-3,6.5-6.6,6.6c-7.9,0-15.7,0-23.6,0c-2.7,0-4.6-1.4-5.9-3.7
		c-0.2-0.4-0.4-0.9-0.7-1.3v-24c0.9-2.4,2.6-4.1,5-5H44z"/>
	<g>
		<path class="st1" d="M145.6,35.4c-0.6-1.6-1.1-3-2-4.5c-0.7,1.7-1.3,3-1.9,4.5H145.6z M144.8,20.5c1,0.6,1.5,1.6,2,2.6
			c2.4,5.8,4.8,11.5,7.3,17.2c0.2,0.5,0.4,1,0.5,1.6c0.2,1.2-0.5,2.4-1.6,3c-1.2,0.6-2.6,0.3-3.4-0.7c-0.5-0.7-0.8-1.4-1.1-2.2
			c-0.2-0.6-0.6-0.9-1.2-0.8c-2.4,0-4.7,0-7.1,0c-0.7,0-1,0.2-1.2,0.9c-0.2,0.6-0.5,1.2-0.8,1.8c-0.8,1.3-2.2,1.8-3.6,1.2
			c-1.3-0.6-2-2-1.6-3.4c0.2-0.8,0.6-1.6,0.9-2.3c2.3-5.4,4.5-10.7,6.8-16.1c0.4-1.1,1-2,2-2.6h2.1V20.5z"/>
	</g>
	<path class="st1" d="M12.4,82.7c1.3-2,3.2-1.9,5.2-1.6c1.3,0.2,2.2,1.5,2.2,2.8s-1,2.5-2.3,2.7c-1.9,0.3-3.8,0.3-5-1.7v-2.2H12.4z"
		/>
	<path class="st1" d="M148,132.7c-0.3-0.6-0.6-1.2-1-1.7c-0.4-0.7-0.8-1.7-1.4-2c-0.5-0.2-1.5,0.3-2.2,0.6c-1.3,0.5-2.5,0.3-3.7-0.5
		c-0.9-0.6-1.8-1.2-2.7-1.6c-1.4-0.6-2.1-1.6-2.5-3.1c-0.5-2.3-0.5-2.3-2.8-2.3s-2.3,0-2.8,2.3c-0.3,1.4-1,2.4-2.3,3
		c-0.8,0.3-1.6,0.7-2.3,1.3c-1.5,1.2-3,1.4-4.8,0.7c-2.2-0.8-1.6-1-2.8,1.1c-1.3,2.2-1.3,2.2,0.6,4c1,0.9,1.4,1.9,1.3,3.2
		c-0.1,1-0.1,2,0,3c0.2,1.8-0.4,3.2-1.8,4.3c-1.7,1.3-1.4,1.1-0.5,2.8c0,0.1,0.1,0.2,0.1,0.2c1.2,2.1,1.2,2.1,3.7,1.4h0.1
		c1.2-0.4,2.3-0.3,3.3,0.5c0.6,0.4,1.1,0.9,1.7,1.1c2.5,0.8,3.8,2.5,3.9,5.1c0,0.7,0.4,1,1.1,0.9c0.3,0,0.6,0,1,0
		c0.9,0,1.9,0.2,2.5-0.2c0.5-0.4,0.6-1.5,0.7-2.3c0.2-1.4,1-2.3,2.3-2.9c0.8-0.3,1.5-0.7,2.2-1.2c1.6-1.3,3.2-1.4,5-0.7
		c1.6,0.6,1.6,0.5,2.5-0.9c0.1-0.2,0.2-0.3,0.3-0.5c1.2-2,1.2-2-0.6-3.6c-0.1-0.1-0.3-0.3-0.4-0.4c-0.9-0.8-1.2-1.8-1.1-3
		c0.1-1.2,0.1-2.4,0-3.6c-0.1-1.2,0.2-2.2,1.1-3c0.5-0.5,1-0.9,1.5-1.4C147.7,133.2,147.8,132.9,148,132.7z M117,122.6
		c0.7,0.2,1.8,0.5,2.9,0.9c1.8,0.6,3.4-0.4,3.8-2.2c0.2-0.8,0.3-1.5,0.5-2.3c0.4-1.7,1.3-2.6,3.1-2.7c3-0.1,5.9-0.1,8.9,0
		c1.7,0,2.6,0.9,3.1,2.7c0.2,0.7,0.4,1.4,0.5,2.2c0.1,1,0.7,1.6,1.5,2.1s1.5,0.6,2.3,0.2c0.7-0.3,1.5-0.5,2.2-0.7
		c1.7-0.5,2.9-0.1,3.8,1.4c1.5,2.5,3,5,4.4,7.6c0.9,1.6,0.6,2.7-0.7,4c-0.5,0.5-0.9,1-1.4,1.3c-1.3,0.8-1.4,2.1-1.3,3.4
		c0,0.4,0.3,0.8,0.6,1c0.7,0.7,1.5,1.3,2.2,2.1c1.2,1.2,1.4,2.3,0.6,3.8c-1.5,2.6-3,5.2-4.5,7.8c-0.8,1.4-2,1.8-3.6,1.3
		c-0.7-0.2-1.4-0.3-2-0.6c-1.2-0.6-2.2-0.4-3.2,0.4c-0.6,0.4-0.9,0.9-1,1.5c-0.2,0.9-0.3,1.8-0.6,2.7c-0.4,1.6-1.4,2.4-3,2.4
		c-3,0-5.9,0-8.9,0c-1.6,0-2.6-0.8-3-2.3c-0.3-1-0.4-2-0.7-3c-0.3-1.2-2.1-2.3-3.3-1.9c-0.9,0.3-1.8,0.6-2.8,0.9
		c-1.7,0.5-2.8,0.1-3.8-1.5c-1.2-2-2.3-4-3.5-6c-0.3-0.6-0.7-1.1-0.9-1.7c-0.7-1.4-0.5-2.5,0.6-3.7c0.7-0.7,1.4-1.3,2.1-2
		c1-1,1-3.1,0-4.1c-0.7-0.6-1.4-1.2-2.1-1.9c-1.2-1.2-1.4-2.3-0.6-3.8c1.5-2.6,3-5.2,4.5-7.8C114.5,123.1,115.4,122.5,117,122.6z"/>
	<path class="st1" d="M130.6,67.7c1.4,0,2.9,0,4.3,0c0.6,0,1.2,0.1,1.8,0.2c1.2,0.3,2,1.5,2,2.7c0,1.3-0.9,2.6-2.2,2.6
		c-4,0.1-7.9,0.1-11.9,0c-1.3,0-2.1-1.4-2.2-2.7c0-1.2,0.8-2.3,2-2.7c0.6-0.2,1.2-0.2,1.8-0.2C127.7,67.7,129.1,67.7,130.6,67.7z"/>
	<path class="st1" d="M118.2,51.7c-2.1-0.1-3.4-2.2-2.5-4c0.2-0.4,0.5-0.9,0.9-1.2c2.2-2.3,4.5-4.5,6.8-6.8c0.9-0.8,1.8-1.4,3.1-1
		c1.9,0.6,2.7,2.6,1.6,4.3c-0.1,0.2-0.3,0.4-0.4,0.5c-2.4,2.4-4.8,4.8-7.1,7.1C119.8,51.4,119,51.8,118.2,51.7z"/>
	<path class="st1" d="M99,36.4c0,1.3,0,2.6,0,3.9c0,0.6-0.1,1.2-0.2,1.8c-0.3,1.2-1.3,2.1-2.6,2.1c-1.3,0.1-2.4-0.6-2.8-1.8
		c-0.1-0.3-0.2-0.5-0.2-0.8c0-3.5-0.1-7,0-10.5c0-1.5,1.1-2.4,2.4-2.6c1.5-0.2,3,0.6,3.1,2.2C99,32.6,99,34.5,99,36.4L99,36.4z"/>
	<path class="st1" d="M29.6,86.7c-0.5,0-0.9,0-1.4-0.1c-1.5-0.2-2.4-1.4-2.4-2.9c0.1-1.4,1.1-2.5,2.5-2.7c0.8-0.1,1.7-0.1,2.5,0
		c1.5,0.1,2.7,1.3,2.7,2.8s-1.1,2.7-2.7,2.8C30.5,86.7,30.1,86.6,29.6,86.7L29.6,86.7z"/>
	<path class="st1" d="M25.8,90.6c0,0.5,0,0.9,0,1.4c-0.2,1.4-1.3,2.4-2.7,2.5c-1.4,0-2.7-0.9-2.9-2.3c-0.1-1-0.1-2,0-3
		c0.2-1.4,1.5-2.4,2.8-2.3c1.4,0,2.6,1.1,2.7,2.4C25.8,89.7,25.8,90.2,25.8,90.6L25.8,90.6z"/>
	<path class="st1" d="M25.7,76.9c0,0.5,0.1,0.9,0,1.4c-0.2,1.4-1.4,2.4-2.8,2.5c-1.3,0-2.6-1-2.8-2.3c-0.1-0.9-0.1-1.9,0-2.9
		c0.2-1.4,1.6-2.4,2.9-2.3c1.4,0.1,2.5,1.2,2.7,2.5C25.8,76.1,25.8,76.5,25.7,76.9L25.7,76.9z"/>
	<path class="st1" d="M108.6,55.7c0-1.6,1.2-2.8,2.8-2.8c1.6,0,3,1.3,2.9,2.9c0,1.5-1.4,2.8-2.9,2.8
		C109.9,58.6,108.6,57.2,108.6,55.7z"/>
	<path class="st1" d="M63.6,70.3c-1.5,0-2.8-1.2-2.9-2.7c-0.1-1.5,1.4-3,2.9-2.9c1.5,0,2.8,1.3,2.8,2.8C66.3,69,65.1,70.3,63.6,70.3
		z"/>
	<path class="st1" d="M28.3,40.2c1.7-0.9,3.2-1.8,4.8-2.8c-1.7-1-3.2-1.8-4.8-2.8V40.2z M22.3,37.5c0.1-1.2,0.1-2.4,0.3-3.6
		c0.6-3.6,4.6-5.9,7.9-4.4c2.1,0.9,4,2.1,5.9,3.4c3.1,2.3,3,7-0.1,9.3c-1.4,1-3,1.8-4.5,2.7c-4,2.5-9.2,0.1-9.4-5.2
		C22.3,38.9,22.4,38.2,22.3,37.5L22.3,37.5z"/>
	<path class="st1" d="M131.8,142.1c1.5,0,2.7-1.2,2.6-2.6c0-1.4-1.2-2.5-2.6-2.6c-1.5,0-2.6,1.1-2.6,2.6S130.3,142.1,131.8,142.1z
		 M131.8,131.1c4.6,0,8.4,3.7,8.4,8.4c0,4.6-3.7,8.4-8.3,8.5c-4.6,0-8.5-3.9-8.5-8.5C123.4,134.9,127.2,131.1,131.8,131.1z"/>
</g>
</svg>
